<mxfile host="app.diagrams.net" agent="Mozilla/5.0 (Windows NT 10.0; Win64; x64) AppleWebKit/537.36 (KHTML, like Gecko) Chrome/130.0.0.0 Safari/537.36" version="24.8.3">
  <diagram name="Page-1" id="b5b7bab2-c9e2-2cf4-8b2a-24fd1a2a6d21">
    <mxGraphModel dx="2938" dy="1085" grid="1" gridSize="10" guides="1" tooltips="1" connect="1" arrows="1" fold="1" page="1" pageScale="1" pageWidth="827" pageHeight="1169" background="none" math="0" shadow="0">
      <root>
        <mxCell id="0" />
        <mxCell id="1" parent="0" />
        <UserObject label="" link="&#xa;&lt;table style=&quot;box-sizing: border-box; border-width: 0px; border-style: solid; border-color: inherit; --tw-border-spacing-x: 0; --tw-border-spacing-y: 0; --tw-translate-x: 0; --tw-translate-y: 0; --tw-rotate: 0; --tw-skew-x: 0; --tw-skew-y: 0; --tw-scale-x: 1; --tw-scale-y: 1; --tw-pan-x: ; --tw-pan-y: ; --tw-pinch-zoom: ; --tw-scroll-snap-strictness: proximity; --tw-gradient-from-position: ; --tw-gradient-via-position: ; --tw-gradient-to-position: ; --tw-ordinal: ; --tw-slashed-zero: ; --tw-numeric-figure: ; --tw-numeric-spacing: ; --tw-numeric-fraction: ; --tw-ring-inset: ; --tw-ring-offset-width: 0px; --tw-ring-offset-color: #fff; --tw-ring-color: rgba(147,197,253,.5); --tw-ring-offset-shadow: 0 0 #0000; --tw-ring-shadow: 0 0 #0000; --tw-shadow: 0 0 #0000; --tw-shadow-colored: 0 0 #0000; --tw-blur: ; --tw-brightness: ; --tw-contrast: ; --tw-grayscale: ; --tw-hue-rotate: ; --tw-invert: ; --tw-saturate: ; --tw-sepia: ; --tw-drop-shadow: ; --tw-backdrop-blur: ; --tw-backdrop-brightness: ; --tw-backdrop-contrast: ; --tw-backdrop-grayscale: ; --tw-backdrop-hue-rotate: ; --tw-backdrop-invert: ; --tw-backdrop-opacity: ; --tw-backdrop-saturate: ; --tw-backdrop-sepia: ; text-indent: 0px; border-collapse: separate; display: table; table-layout: fixed; overflow-x: auto; width: 838px; border-spacing: 0px; color: rgb(23, 23, 23); font-family: Circular, custom-font, &amp;quot;Helvetica Neue&amp;quot;, Helvetica, Arial, sans-serif; font-size: medium; font-style: normal; font-variant-ligatures: normal; font-variant-caps: normal; font-weight: 400; letter-spacing: normal; orphans: 2; text-align: start; text-transform: none; widows: 2; word-spacing: 0px; -webkit-text-stroke-width: 0px; white-space: normal; background-color: rgb(248, 248, 248); text-decoration-thickness: initial; text-decoration-style: initial; text-decoration-color: initial;&quot; class=&quot;table table-fixed overflow-x-auto&quot;&gt;&lt;tbody style=&quot;box-sizing: border-box; border-width: 0px; border-style: solid; border-color: hsl(var(--border-default)/1); --tw-border-spacing-x: 0; --tw-border-spacing-y: 0; --tw-translate-x: 0; --tw-translate-y: 0; --tw-rotate: 0; --tw-skew-x: 0; --tw-skew-y: 0; --tw-scale-x: 1; --tw-scale-y: 1; --tw-pan-x: ; --tw-pan-y: ; --tw-pinch-zoom: ; --tw-scroll-snap-strictness: proximity; --tw-gradient-from-position: ; --tw-gradient-via-position: ; --tw-gradient-to-position: ; --tw-ordinal: ; --tw-slashed-zero: ; --tw-numeric-figure: ; --tw-numeric-spacing: ; --tw-numeric-fraction: ; --tw-ring-inset: ; --tw-ring-offset-width: 0px; --tw-ring-offset-color: #fff; --tw-ring-color: rgba(147,197,253,.5); --tw-ring-offset-shadow: 0 0 #0000; --tw-ring-shadow: 0 0 #0000; --tw-shadow: 0 0 #0000; --tw-shadow-colored: 0 0 #0000; --tw-blur: ; --tw-brightness: ; --tw-contrast: ; --tw-grayscale: ; --tw-hue-rotate: ; --tw-invert: ; --tw-saturate: ; --tw-sepia: ; --tw-drop-shadow: ; --tw-backdrop-blur: ; --tw-backdrop-brightness: ; --tw-backdrop-contrast: ; --tw-backdrop-grayscale: ; --tw-backdrop-hue-rotate: ; --tw-backdrop-invert: ; --tw-backdrop-opacity: ; --tw-backdrop-saturate: ; --tw-backdrop-sepia: ;&quot;&gt;&lt;tr style=&quot;box-sizing: border-box; border-width: 0px; border-style: solid; border-color: hsl(var(--border-default)/1); --tw-border-spacing-x: 0; --tw-border-spacing-y: 0; --tw-translate-x: 0; --tw-translate-y: 0; --tw-rotate: 0; --tw-skew-x: 0; --tw-skew-y: 0; --tw-scale-x: 1; --tw-scale-y: 1; --tw-pan-x: ; --tw-pan-y: ; --tw-pinch-zoom: ; --tw-scroll-snap-strictness: proximity; --tw-gradient-from-position: ; --tw-gradient-via-position: ; --tw-gradient-to-position: ; --tw-ordinal: ; --tw-slashed-zero: ; --tw-numeric-figure: ; --tw-numeric-spacing: ; --tw-numeric-fraction: ; --tw-ring-inset: ; --tw-ring-offset-width: 0px; --tw-ring-offset-color: #fff; --tw-ring-color: rgba(147,197,253,.5); --tw-ring-offset-shadow: 0 0 #0000; --tw-ring-shadow: 0 0 #0000; --tw-shadow: 0 0 #0000; --tw-shadow-colored: 0 0 #0000; --tw-blur: ; --tw-brightness: ; --tw-contrast: ; --tw-grayscale: ; --tw-hue-rotate: ; --tw-invert: ; --tw-saturate: ; --tw-sepia: ; --tw-drop-shadow: ; --tw-backdrop-blur: ; --tw-backdrop-brightness: ; --tw-backdrop-contrast: ; --tw-backdrop-grayscale: ; --tw-backdrop-hue-rotate: ; --tw-backdrop-invert: ; --tw-backdrop-opacity: ; --tw-backdrop-saturate: ; --tw-backdrop-sepia: ; --tw-bg-opacity: 1; background-color: hsl(var(--background-surface-100)/var(--tw-bg-opacity));&quot; data-sentry-source-file=&quot;Table.tsx&quot; data-sentry-component=&quot;Tr&quot; class=&quot;&quot;&gt;&lt;td style=&quot;box-sizing: border-box; border-width: 0px 0px 1px 1px; border-style: solid; border-color: hsl(var(--border-default)/var(--tw-border-opacity)); --tw-border-spacing-x: 0; --tw-border-spacing-y: 0; --tw-translate-x: 0; --tw-translate-y: 0; --tw-rotate: 0; --tw-skew-x: 0; --tw-skew-y: 0; --tw-scale-x: 1; --tw-scale-y: 1; --tw-pan-x: ; --tw-pan-y: ; --tw-pinch-zoom: ; --tw-scroll-snap-strictness: proximity; --tw-gradient-from-position: ; --tw-gradient-via-position: ; --tw-gradient-to-position: ; --tw-ordinal: ; --tw-slashed-zero: ; --tw-numeric-figure: ; --tw-numeric-spacing: ; --tw-numeric-fraction: ; --tw-ring-inset: ; --tw-ring-offset-width: 0px; --tw-ring-offset-color: #fff; --tw-ring-color: rgba(147,197,253,.5); --tw-ring-offset-shadow: 0 0 #0000; --tw-ring-shadow: 0 0 #0000; --tw-shadow: 0 0 #0000; --tw-shadow-colored: 0 0 #0000; --tw-blur: ; --tw-brightness: ; --tw-contrast: ; --tw-grayscale: ; --tw-hue-rotate: ; --tw-invert: ; --tw-saturate: ; --tw-sepia: ; --tw-drop-shadow: ; --tw-backdrop-blur: ; --tw-backdrop-brightness: ; --tw-backdrop-contrast: ; --tw-backdrop-grayscale: ; --tw-backdrop-hue-rotate: ; --tw-backdrop-invert: ; --tw-backdrop-opacity: ; --tw-backdrop-saturate: ; --tw-backdrop-sepia: ; overflow: hidden; white-space: nowrap; text-overflow: ellipsis; --tw-border-opacity: 1; padding: 0.75rem 1rem 0.75rem 1.5rem; font-size: 0.875rem; line-height: 1.25rem; color: var(--colors-gray11);&quot; data-sentry-source-file=&quot;Table.tsx&quot; data-sentry-component=&quot;Td&quot; class=&quot;truncate&quot;&gt;&lt;p style=&quot;box-sizing: border-box; border-width: 0px; border-style: solid; border-color: hsl(var(--border-default)/1); --tw-border-spacing-x: 0; --tw-border-spacing-y: 0; --tw-translate-x: 0; --tw-translate-y: 0; --tw-rotate: 0; --tw-skew-x: 0; --tw-skew-y: 0; --tw-scale-x: 1; --tw-scale-y: 1; --tw-pan-x: ; --tw-pan-y: ; --tw-pinch-zoom: ; --tw-scroll-snap-strictness: proximity; --tw-gradient-from-position: ; --tw-gradient-via-position: ; --tw-gradient-to-position: ; --tw-ordinal: ; --tw-slashed-zero: ; --tw-numeric-figure: ; --tw-numeric-spacing: ; --tw-numeric-fraction: ; --tw-ring-inset: ; --tw-ring-offset-width: 0px; --tw-ring-offset-color: #fff; --tw-ring-color: rgba(147,197,253,.5); --tw-ring-offset-shadow: 0 0 #0000; --tw-ring-shadow: 0 0 #0000; --tw-shadow: 0 0 #0000; --tw-shadow-colored: 0 0 #0000; --tw-blur: ; --tw-brightness: ; --tw-contrast: ; --tw-grayscale: ; --tw-hue-rotate: ; --tw-invert: ; --tw-saturate: ; --tw-sepia: ; --tw-drop-shadow: ; --tw-backdrop-blur: ; --tw-backdrop-brightness: ; --tw-backdrop-contrast: ; --tw-backdrop-grayscale: ; --tw-backdrop-hue-rotate: ; --tw-backdrop-invert: ; --tw-backdrop-opacity: ; --tw-backdrop-saturate: ; --tw-backdrop-sepia: ; margin: 0px;&quot; title=&quot;sp_obter_mensagens_por_usuario&quot;&gt;sp_obter_mensagens_por_usuario&lt;/p&gt;&lt;/td&gt;&lt;td style=&quot;box-sizing: border-box; border-width: 0px 0px 1px; border-style: solid; border-color: hsl(var(--border-default)/var(--tw-border-opacity)); --tw-border-spacing-x: 0; --tw-border-spacing-y: 0; --tw-translate-x: 0; --tw-translate-y: 0; --tw-rotate: 0; --tw-skew-x: 0; --tw-skew-y: 0; --tw-scale-x: 1; --tw-scale-y: 1; --tw-pan-x: ; --tw-pan-y: ; --tw-pinch-zoom: ; --tw-scroll-snap-strictness: proximity; --tw-gradient-from-position: ; --tw-gradient-via-position: ; --tw-gradient-to-position: ; --tw-ordinal: ; --tw-slashed-zero: ; --tw-numeric-figure: ; --tw-numeric-spacing: ; --tw-numeric-fraction: ; --tw-ring-inset: ; --tw-ring-offset-width: 0px; --tw-ring-offset-color: #fff; --tw-ring-color: rgba(147,197,253,.5); --tw-ring-offset-shadow: 0 0 #0000; --tw-ring-shadow: 0 0 #0000; --tw-shadow: 0 0 #0000; --tw-shadow-colored: 0 0 #0000; --tw-blur: ; --tw-brightness: ; --tw-contrast: ; --tw-grayscale: ; --tw-hue-rotate: ; --tw-invert: ; --tw-saturate: ; --tw-sepia: ; --tw-drop-shadow: ; --tw-backdrop-blur: ; --tw-backdrop-brightness: ; --tw-backdrop-contrast: ; --tw-backdrop-grayscale: ; --tw-backdrop-hue-rotate: ; --tw-backdrop-invert: ; --tw-backdrop-opacity: ; --tw-backdrop-saturate: ; --tw-backdrop-sepia: ; display: table-cell; overflow: auto; --tw-border-opacity: 1; padding: 0.75rem 1rem; font-size: 0.875rem; line-height: 1.25rem; color: var(--colors-gray11);&quot; data-sentry-source-file=&quot;Table.tsx&quot; data-sentry-component=&quot;Td&quot; class=&quot;table-cell overflow-auto&quot;&gt;&lt;/td&gt;&lt;/tr&gt;&lt;/tbody&gt;&lt;/table&gt;&lt;br class=&quot;Apple-interchange-newline&quot;&gt;&#xa;&#xa;" id="ovKxOL7qd5Me1iG77r4D-13">
          <mxCell style="shape=folder;fontStyle=1;spacingTop=10;tabWidth=194;tabHeight=22;tabPosition=left;html=1;rounded=0;shadow=0;comic=0;labelBackgroundColor=none;strokeWidth=1;fillColor=#003366;fontFamily=Verdana;fontSize=10;align=center;" vertex="1" parent="1">
            <mxGeometry x="170" y="255" width="930" height="890" as="geometry" />
          </mxCell>
        </UserObject>
        <mxCell id="ovKxOL7qd5Me1iG77r4D-14" value="&lt;font style=&quot;font-size: 18px;&quot; color=&quot;#ffffff&quot;&gt;&lt;b&gt;Cligo&lt;/b&gt;&lt;/font&gt;" style="text;html=1;align=left;verticalAlign=top;spacingTop=-4;fontSize=10;fontFamily=Verdana" vertex="1" parent="1">
          <mxGeometry x="180" y="253" width="50" height="20" as="geometry" />
        </mxCell>
        <mxCell id="ovKxOL7qd5Me1iG77r4D-18" value="&lt;font color=&quot;#ffffff&quot;&gt;trg_check_telefone_duplicado&lt;/font&gt;" style="shape=folder;fontStyle=1;spacingTop=10;tabWidth=194;tabHeight=22;tabPosition=left;html=1;rounded=0;shadow=0;comic=0;labelBackgroundColor=none;strokeWidth=1;fillColor=#FF0000;fontFamily=Verdana;fontSize=10;align=center;" vertex="1" parent="1">
          <mxGeometry x="470" y="320" width="180" height="60" as="geometry" />
        </mxCell>
        <mxCell id="ovKxOL7qd5Me1iG77r4D-19" value="&lt;font color=&quot;#ffffff&quot;&gt;&lt;b&gt;Trigger&lt;/b&gt;&lt;/font&gt;" style="text;html=1;align=center;verticalAlign=middle;whiteSpace=wrap;rounded=0;" vertex="1" parent="1">
          <mxGeometry x="470" y="320" width="60" height="20" as="geometry" />
        </mxCell>
        <mxCell id="ovKxOL7qd5Me1iG77r4D-23" value="trg_criar_perfil_automatico" style="shape=folder;fontStyle=1;spacingTop=10;tabWidth=194;tabHeight=22;tabPosition=left;html=1;rounded=0;shadow=0;comic=0;labelBackgroundColor=none;strokeWidth=1;fillColor=#CCCCFF;fontFamily=Verdana;fontSize=10;align=center;" vertex="1" parent="1">
          <mxGeometry x="470" y="410" width="170" height="70" as="geometry" />
        </mxCell>
        <mxCell id="ovKxOL7qd5Me1iG77r4D-24" value="&lt;b style=&quot;&quot;&gt;Trigger&lt;/b&gt;" style="text;html=1;align=center;verticalAlign=middle;whiteSpace=wrap;rounded=0;" vertex="1" parent="1">
          <mxGeometry x="470" y="410" width="60" height="20" as="geometry" />
        </mxCell>
        <mxCell id="ovKxOL7qd5Me1iG77r4D-26" value="sp_adicionar_usuario" style="shape=folder;fontStyle=1;spacingTop=10;tabWidth=194;tabHeight=22;tabPosition=left;html=1;rounded=0;shadow=0;comic=0;labelBackgroundColor=none;strokeWidth=1;fillColor=#42B020;fontFamily=Verdana;fontSize=10;align=center;" vertex="1" parent="1">
          <mxGeometry x="470" y="637.75" width="140" height="70" as="geometry" />
        </mxCell>
        <mxCell id="ovKxOL7qd5Me1iG77r4D-27" value="&lt;b style=&quot;&quot;&gt;Trigger&lt;/b&gt;" style="text;html=1;align=center;verticalAlign=middle;whiteSpace=wrap;rounded=0;" vertex="1" parent="1">
          <mxGeometry x="470" y="637.75" width="60" height="20" as="geometry" />
        </mxCell>
        <mxCell id="ovKxOL7qd5Me1iG77r4D-28" value="&lt;font color=&quot;#ffffff&quot;&gt;trg_deletar_usuario&lt;/font&gt;" style="shape=folder;fontStyle=1;spacingTop=10;tabWidth=194;tabHeight=22;tabPosition=left;html=1;rounded=0;shadow=0;comic=0;labelBackgroundColor=none;strokeWidth=1;fillColor=#FF0000;fontFamily=Verdana;fontSize=10;align=center;" vertex="1" parent="1">
          <mxGeometry x="490" y="874.5" width="120" height="60" as="geometry" />
        </mxCell>
        <mxCell id="ovKxOL7qd5Me1iG77r4D-29" value="&lt;font color=&quot;#ffffff&quot;&gt;&lt;b&gt;Trigger&lt;/b&gt;&lt;/font&gt;" style="text;html=1;align=center;verticalAlign=middle;whiteSpace=wrap;rounded=0;" vertex="1" parent="1">
          <mxGeometry x="490" y="874.5" width="60" height="20" as="geometry" />
        </mxCell>
        <mxCell id="ovKxOL7qd5Me1iG77r4D-30" value="&lt;font color=&quot;#ffffff&quot;&gt;trg_notificacao_mensagem&lt;/font&gt;" style="shape=folder;fontStyle=1;spacingTop=10;tabWidth=194;tabHeight=22;tabPosition=left;html=1;rounded=0;shadow=0;comic=0;labelBackgroundColor=none;strokeWidth=1;fillColor=#FF0000;fontFamily=Verdana;fontSize=10;align=center;" vertex="1" parent="1">
          <mxGeometry x="460" y="950" width="170" height="70" as="geometry" />
        </mxCell>
        <mxCell id="ovKxOL7qd5Me1iG77r4D-31" value="&lt;font color=&quot;#ffffff&quot;&gt;&lt;b&gt;Trigger&lt;/b&gt;&lt;/font&gt;" style="text;html=1;align=center;verticalAlign=middle;whiteSpace=wrap;rounded=0;" vertex="1" parent="1">
          <mxGeometry x="460" y="950" width="60" height="20" as="geometry" />
        </mxCell>
        <mxCell id="ovKxOL7qd5Me1iG77r4D-33" value="&lt;font color=&quot;#ffffff&quot;&gt;trg_data_confirmacao_presenca&lt;/font&gt;" style="shape=folder;fontStyle=1;spacingTop=10;tabWidth=194;tabHeight=22;tabPosition=left;html=1;rounded=0;shadow=0;comic=0;labelBackgroundColor=none;strokeWidth=1;fillColor=#FF0000;fontFamily=Verdana;fontSize=10;align=center;" vertex="1" parent="1">
          <mxGeometry x="460" y="1050" width="200" height="70" as="geometry" />
        </mxCell>
        <mxCell id="ovKxOL7qd5Me1iG77r4D-34" value="&lt;font color=&quot;#ffffff&quot;&gt;&lt;b&gt;Trigger&lt;/b&gt;&lt;/font&gt;" style="text;html=1;align=center;verticalAlign=middle;whiteSpace=wrap;rounded=0;" vertex="1" parent="1">
          <mxGeometry x="460" y="1050" width="60" height="20" as="geometry" />
        </mxCell>
        <mxCell id="ovKxOL7qd5Me1iG77r4D-35" value="&lt;font color=&quot;#ffffff&quot;&gt;sp_adicionar_telefone&lt;/font&gt;" style="shape=folder;fontStyle=1;spacingTop=10;tabWidth=194;tabHeight=22;tabPosition=left;html=1;rounded=0;shadow=0;comic=0;labelBackgroundColor=none;strokeWidth=1;fillColor=#FF0000;fontFamily=Verdana;fontSize=10;align=center;" vertex="1" parent="1">
          <mxGeometry x="834.5" y="300" width="140" height="60" as="geometry" />
        </mxCell>
        <mxCell id="ovKxOL7qd5Me1iG77r4D-41" value="sp_criar_perfil_fisico" style="shape=folder;fontStyle=1;spacingTop=10;tabWidth=194;tabHeight=22;tabPosition=left;html=1;rounded=0;shadow=0;comic=0;labelBackgroundColor=none;strokeWidth=1;fillColor=#CCCCFF;fontFamily=Verdana;fontSize=10;align=center;" vertex="1" parent="1">
          <mxGeometry x="834.5" y="460" width="130" height="60" as="geometry" />
        </mxCell>
        <mxCell id="ovKxOL7qd5Me1iG77r4D-43" value="sp_criar_perfil_juridico" style="shape=folder;fontStyle=1;spacingTop=10;tabWidth=194;tabHeight=22;tabPosition=left;html=1;rounded=0;shadow=0;comic=0;labelBackgroundColor=none;strokeWidth=1;fillColor=#CCCCFF;fontFamily=Verdana;fontSize=10;align=center;" vertex="1" parent="1">
          <mxGeometry x="834.5" y="380" width="140" height="60" as="geometry" />
        </mxCell>
        <mxCell id="ovKxOL7qd5Me1iG77r4D-45" value="sp_adicionar_interesse" style="shape=folder;fontStyle=1;spacingTop=10;tabWidth=194;tabHeight=22;tabPosition=left;html=1;rounded=0;shadow=0;comic=0;labelBackgroundColor=none;strokeWidth=1;fillColor=#42B020;fontFamily=Verdana;fontSize=10;align=center;" vertex="1" parent="1">
          <mxGeometry x="800" y="760" width="140" height="60" as="geometry" />
        </mxCell>
        <mxCell id="ovKxOL7qd5Me1iG77r4D-46" value="&lt;b style=&quot;&quot;&gt;PROCEDURE&lt;/b&gt;" style="text;html=1;align=center;verticalAlign=middle;whiteSpace=wrap;rounded=0;" vertex="1" parent="1">
          <mxGeometry x="810" y="760" width="60" height="20" as="geometry" />
        </mxCell>
        <mxCell id="ovKxOL7qd5Me1iG77r4D-47" value="&lt;span style=&quot;color: rgb(255, 255, 255);&quot;&gt;sp_deletar_usuario&lt;/span&gt;" style="shape=folder;fontStyle=1;spacingTop=10;tabWidth=194;tabHeight=22;tabPosition=left;html=1;rounded=0;shadow=0;comic=0;labelBackgroundColor=none;strokeWidth=1;fillColor=#FF0000;fontFamily=Verdana;fontSize=10;align=center;" vertex="1" parent="1">
          <mxGeometry x="801" y="900" width="120" height="60" as="geometry" />
        </mxCell>
        <mxCell id="ovKxOL7qd5Me1iG77r4D-49" value="&lt;span style=&quot;color: rgb(255, 255, 255);&quot;&gt;sp_enviar_mensagem&lt;/span&gt;" style="shape=folder;fontStyle=1;spacingTop=10;tabWidth=194;tabHeight=22;tabPosition=left;html=1;rounded=0;shadow=0;comic=0;labelBackgroundColor=none;strokeWidth=1;fillColor=#FF0000;fontFamily=Verdana;fontSize=10;align=center;" vertex="1" parent="1">
          <mxGeometry x="801" y="980" width="135" height="60" as="geometry" />
        </mxCell>
        <mxCell id="ovKxOL7qd5Me1iG77r4D-51" value="sp_listar_usuarios" style="shape=folder;fontStyle=1;spacingTop=10;tabWidth=194;tabHeight=22;tabPosition=left;html=1;rounded=0;shadow=0;comic=0;labelBackgroundColor=none;strokeWidth=1;fillColor=#42B020;fontFamily=Verdana;fontSize=10;align=center;" vertex="1" parent="1">
          <mxGeometry x="800.5" y="830" width="121" height="60" as="geometry" />
        </mxCell>
        <mxCell id="ovKxOL7qd5Me1iG77r4D-53" value="sp_obter_mensagem_por_usuario" style="shape=folder;fontStyle=1;spacingTop=10;tabWidth=194;tabHeight=22;tabPosition=left;html=1;rounded=0;shadow=0;comic=0;labelBackgroundColor=none;strokeWidth=1;fillColor=#42B020;fontFamily=Verdana;fontSize=10;align=center;" vertex="1" parent="1">
          <mxGeometry x="800.5" y="535" width="209" height="60" as="geometry" />
        </mxCell>
        <mxCell id="ovKxOL7qd5Me1iG77r4D-55" value="&lt;span style=&quot;color: rgb(255, 255, 255);&quot;&gt;sp_obter_presencas_por_usuario&lt;/span&gt;" style="shape=folder;fontStyle=1;spacingTop=10;tabWidth=194;tabHeight=22;tabPosition=left;html=1;rounded=0;shadow=0;comic=0;labelBackgroundColor=none;strokeWidth=1;fillColor=#FF0000;fontFamily=Verdana;fontSize=10;align=center;" vertex="1" parent="1">
          <mxGeometry x="801" y="1060" width="210" height="60" as="geometry" />
        </mxCell>
        <mxCell id="ovKxOL7qd5Me1iG77r4D-57" value="&lt;b style=&quot;&quot;&gt;&lt;font color=&quot;#ffffff&quot;&gt;PROCEDURE&lt;/font&gt;&lt;/b&gt;" style="text;html=1;align=center;verticalAlign=middle;whiteSpace=wrap;rounded=0;" vertex="1" parent="1">
          <mxGeometry x="851" y="300" width="60" height="20" as="geometry" />
        </mxCell>
        <mxCell id="ovKxOL7qd5Me1iG77r4D-60" value="&lt;b style=&quot;&quot;&gt;PROCEDURE&lt;/b&gt;" style="text;html=1;align=center;verticalAlign=middle;whiteSpace=wrap;rounded=0;" vertex="1" parent="1">
          <mxGeometry x="845.5" y="460" width="60" height="20" as="geometry" />
        </mxCell>
        <mxCell id="ovKxOL7qd5Me1iG77r4D-61" value="&lt;b style=&quot;&quot;&gt;PROCEDURE&lt;/b&gt;" style="text;html=1;align=center;verticalAlign=middle;whiteSpace=wrap;rounded=0;" vertex="1" parent="1">
          <mxGeometry x="848.5" y="380" width="60" height="20" as="geometry" />
        </mxCell>
        <mxCell id="ovKxOL7qd5Me1iG77r4D-63" value="&lt;font color=&quot;#ffffff&quot;&gt;&lt;b&gt;PROCEDURE&lt;/b&gt;&lt;/font&gt;" style="text;html=1;align=center;verticalAlign=middle;whiteSpace=wrap;rounded=0;" vertex="1" parent="1">
          <mxGeometry x="813" y="900" width="60" height="20" as="geometry" />
        </mxCell>
        <mxCell id="ovKxOL7qd5Me1iG77r4D-64" value="&lt;font color=&quot;#ffffff&quot;&gt;&lt;b&gt;PROCEDURE&lt;/b&gt;&lt;/font&gt;" style="text;html=1;align=center;verticalAlign=middle;whiteSpace=wrap;rounded=0;" vertex="1" parent="1">
          <mxGeometry x="811" y="980" width="60" height="20" as="geometry" />
        </mxCell>
        <mxCell id="ovKxOL7qd5Me1iG77r4D-65" value="&lt;b style=&quot;&quot;&gt;PROCEDURE&lt;/b&gt;" style="text;html=1;align=center;verticalAlign=middle;whiteSpace=wrap;rounded=0;" vertex="1" parent="1">
          <mxGeometry x="812.5" y="830" width="60" height="20" as="geometry" />
        </mxCell>
        <mxCell id="ovKxOL7qd5Me1iG77r4D-66" value="&lt;b style=&quot;&quot;&gt;PROCEDURE&lt;/b&gt;" style="text;html=1;align=center;verticalAlign=middle;whiteSpace=wrap;rounded=0;" vertex="1" parent="1">
          <mxGeometry x="809.5" y="535" width="60" height="20" as="geometry" />
        </mxCell>
        <mxCell id="ovKxOL7qd5Me1iG77r4D-67" value="&lt;font color=&quot;#ffffff&quot;&gt;&lt;b&gt;PROCEDURE&lt;/b&gt;&lt;/font&gt;" style="text;html=1;align=center;verticalAlign=middle;whiteSpace=wrap;rounded=0;" vertex="1" parent="1">
          <mxGeometry x="814" y="1060" width="60" height="20" as="geometry" />
        </mxCell>
        <mxCell id="ovKxOL7qd5Me1iG77r4D-72" value="sp_remover_interesse" style="shape=folder;fontStyle=1;spacingTop=10;tabWidth=194;tabHeight=22;tabPosition=left;html=1;rounded=0;shadow=0;comic=0;labelBackgroundColor=none;strokeWidth=1;fillColor=#42B020;fontFamily=Verdana;fontSize=10;align=center;" vertex="1" parent="1">
          <mxGeometry x="800" y="690" width="150" height="60" as="geometry" />
        </mxCell>
        <mxCell id="ovKxOL7qd5Me1iG77r4D-73" value="&lt;b style=&quot;&quot;&gt;PROCEDURE&lt;/b&gt;" style="text;html=1;align=center;verticalAlign=middle;whiteSpace=wrap;rounded=0;" vertex="1" parent="1">
          <mxGeometry x="813" y="690" width="60" height="20" as="geometry" />
        </mxCell>
        <mxCell id="ovKxOL7qd5Me1iG77r4D-76" value="sp_obter_telefone_por_usuario" style="shape=folder;fontStyle=1;spacingTop=10;tabWidth=194;tabHeight=22;tabPosition=left;html=1;rounded=0;shadow=0;comic=0;labelBackgroundColor=none;strokeWidth=1;fillColor=#42B020;fontFamily=Verdana;fontSize=10;align=center;" vertex="1" parent="1">
          <mxGeometry x="800" y="620" width="209" height="60" as="geometry" />
        </mxCell>
        <mxCell id="ovKxOL7qd5Me1iG77r4D-77" value="&lt;b style=&quot;&quot;&gt;PROCEDURE&lt;/b&gt;" style="text;html=1;align=center;verticalAlign=middle;whiteSpace=wrap;rounded=0;" vertex="1" parent="1">
          <mxGeometry x="809" y="620" width="60" height="20" as="geometry" />
        </mxCell>
        <mxCell id="ovKxOL7qd5Me1iG77r4D-80" style="edgeStyle=orthogonalEdgeStyle;rounded=0;orthogonalLoop=1;jettySize=auto;html=1;exitX=0;exitY=0;exitDx=140;exitDy=46;exitPerimeter=0;entryX=0;entryY=0;entryDx=0;entryDy=31.5;entryPerimeter=0;fillColor=#FFFFFF;strokeColor=#FFFFFF;" edge="1" parent="1">
          <mxGeometry relative="1" as="geometry">
            <mxPoint x="612.0000000000002" y="683.7499999999999" as="sourcePoint" />
            <mxPoint x="802.0000000000002" y="721.5000000000001" as="targetPoint" />
            <Array as="points">
              <mxPoint x="722" y="684" />
              <mxPoint x="722" y="721" />
            </Array>
          </mxGeometry>
        </mxCell>
        <mxCell id="ovKxOL7qd5Me1iG77r4D-82" style="edgeStyle=orthogonalEdgeStyle;rounded=0;orthogonalLoop=1;jettySize=auto;html=1;exitX=0;exitY=0;exitDx=140;exitDy=46;exitPerimeter=0;entryX=0;entryY=0;entryDx=0;entryDy=31.5;entryPerimeter=0;strokeColor=#FFFFFF;" edge="1" parent="1" source="ovKxOL7qd5Me1iG77r4D-26" target="ovKxOL7qd5Me1iG77r4D-35">
          <mxGeometry relative="1" as="geometry" />
        </mxCell>
        <mxCell id="ovKxOL7qd5Me1iG77r4D-83" style="edgeStyle=orthogonalEdgeStyle;rounded=0;orthogonalLoop=1;jettySize=auto;html=1;exitX=0;exitY=0;exitDx=140;exitDy=46;exitPerimeter=0;entryX=0;entryY=0;entryDx=0;entryDy=31.5;entryPerimeter=0;strokeColor=#FFFFFF;" edge="1" parent="1" source="ovKxOL7qd5Me1iG77r4D-26" target="ovKxOL7qd5Me1iG77r4D-43">
          <mxGeometry relative="1" as="geometry" />
        </mxCell>
        <mxCell id="ovKxOL7qd5Me1iG77r4D-85" style="edgeStyle=orthogonalEdgeStyle;rounded=0;orthogonalLoop=1;jettySize=auto;html=1;exitX=0;exitY=0;exitDx=140;exitDy=46;exitPerimeter=0;entryX=0;entryY=0;entryDx=0;entryDy=31.5;entryPerimeter=0;strokeColor=#FFFFFF;" edge="1" parent="1" source="ovKxOL7qd5Me1iG77r4D-26" target="ovKxOL7qd5Me1iG77r4D-41">
          <mxGeometry relative="1" as="geometry" />
        </mxCell>
        <mxCell id="ovKxOL7qd5Me1iG77r4D-86" style="edgeStyle=orthogonalEdgeStyle;rounded=0;orthogonalLoop=1;jettySize=auto;html=1;exitX=0;exitY=0;exitDx=140;exitDy=46;exitPerimeter=0;entryX=0;entryY=0;entryDx=0;entryDy=31.5;entryPerimeter=0;fillColor=#FFFFFF;strokeColor=#FFFFFF;" edge="1" parent="1">
          <mxGeometry relative="1" as="geometry">
            <mxPoint x="612" y="683.75" as="sourcePoint" />
            <mxPoint x="802.5" y="566.5" as="targetPoint" />
            <Array as="points">
              <mxPoint x="722" y="684" />
              <mxPoint x="722" y="567" />
            </Array>
          </mxGeometry>
        </mxCell>
        <mxCell id="ovKxOL7qd5Me1iG77r4D-87" style="edgeStyle=orthogonalEdgeStyle;rounded=0;orthogonalLoop=1;jettySize=auto;html=1;exitX=0;exitY=0;exitDx=140;exitDy=46;exitPerimeter=0;entryX=0;entryY=0;entryDx=0;entryDy=31.5;entryPerimeter=0;fillColor=#FFFFFF;strokeColor=#FFFFFF;" edge="1" parent="1" source="ovKxOL7qd5Me1iG77r4D-26" target="ovKxOL7qd5Me1iG77r4D-45">
          <mxGeometry relative="1" as="geometry" />
        </mxCell>
        <mxCell id="ovKxOL7qd5Me1iG77r4D-88" style="edgeStyle=orthogonalEdgeStyle;rounded=0;orthogonalLoop=1;jettySize=auto;html=1;exitX=0;exitY=0;exitDx=140;exitDy=46;exitPerimeter=0;entryX=0;entryY=0;entryDx=0;entryDy=31.5;entryPerimeter=0;fillColor=#FFFFFF;strokeColor=#FFFFFF;" edge="1" parent="1" source="ovKxOL7qd5Me1iG77r4D-26" target="ovKxOL7qd5Me1iG77r4D-51">
          <mxGeometry relative="1" as="geometry" />
        </mxCell>
        <mxCell id="ovKxOL7qd5Me1iG77r4D-89" style="edgeStyle=orthogonalEdgeStyle;rounded=0;orthogonalLoop=1;jettySize=auto;html=1;exitX=0;exitY=0;exitDx=140;exitDy=46;exitPerimeter=0;entryX=0;entryY=0;entryDx=0;entryDy=31.5;entryPerimeter=0;fillColor=#FFFFFF;strokeColor=#FFFFFF;" edge="1" parent="1" source="ovKxOL7qd5Me1iG77r4D-26" target="ovKxOL7qd5Me1iG77r4D-47">
          <mxGeometry relative="1" as="geometry" />
        </mxCell>
        <mxCell id="ovKxOL7qd5Me1iG77r4D-90" style="edgeStyle=orthogonalEdgeStyle;rounded=0;orthogonalLoop=1;jettySize=auto;html=1;exitX=0;exitY=0;exitDx=140;exitDy=46;exitPerimeter=0;entryX=0;entryY=0;entryDx=0;entryDy=31.5;entryPerimeter=0;fillColor=#FFFFFF;strokeColor=#FFFFFF;" edge="1" parent="1" source="ovKxOL7qd5Me1iG77r4D-26" target="ovKxOL7qd5Me1iG77r4D-49">
          <mxGeometry relative="1" as="geometry" />
        </mxCell>
        <mxCell id="ovKxOL7qd5Me1iG77r4D-91" style="edgeStyle=orthogonalEdgeStyle;rounded=0;orthogonalLoop=1;jettySize=auto;html=1;exitX=0;exitY=0;exitDx=140;exitDy=46;exitPerimeter=0;entryX=0;entryY=0;entryDx=0;entryDy=31.5;entryPerimeter=0;fillColor=#FFFFFF;strokeColor=#FFFFFF;" edge="1" parent="1" source="ovKxOL7qd5Me1iG77r4D-26" target="ovKxOL7qd5Me1iG77r4D-55">
          <mxGeometry relative="1" as="geometry" />
        </mxCell>
        <mxCell id="ovKxOL7qd5Me1iG77r4D-92" style="edgeStyle=orthogonalEdgeStyle;rounded=0;orthogonalLoop=1;jettySize=auto;html=1;exitX=0;exitY=0;exitDx=180;exitDy=41;exitPerimeter=0;entryX=0;entryY=0;entryDx=0;entryDy=31.5;entryPerimeter=0;fillColor=#FFFFFF;strokeColor=#FFFFFF;" edge="1" parent="1" source="ovKxOL7qd5Me1iG77r4D-18" target="ovKxOL7qd5Me1iG77r4D-35">
          <mxGeometry relative="1" as="geometry">
            <Array as="points">
              <mxPoint x="660" y="361" />
              <mxPoint x="660" y="331" />
            </Array>
          </mxGeometry>
        </mxCell>
        <mxCell id="ovKxOL7qd5Me1iG77r4D-93" style="edgeStyle=orthogonalEdgeStyle;rounded=0;orthogonalLoop=1;jettySize=auto;html=1;exitX=0;exitY=0;exitDx=170;exitDy=46;exitPerimeter=0;entryX=0;entryY=0;entryDx=0;entryDy=31.5;entryPerimeter=0;strokeColor=#FFFFFF;" edge="1" parent="1" source="ovKxOL7qd5Me1iG77r4D-23" target="ovKxOL7qd5Me1iG77r4D-43">
          <mxGeometry relative="1" as="geometry">
            <Array as="points">
              <mxPoint x="700" y="456" />
              <mxPoint x="700" y="412" />
            </Array>
          </mxGeometry>
        </mxCell>
        <mxCell id="ovKxOL7qd5Me1iG77r4D-94" style="edgeStyle=orthogonalEdgeStyle;rounded=0;orthogonalLoop=1;jettySize=auto;html=1;exitX=0;exitY=0;exitDx=170;exitDy=46;exitPerimeter=0;entryX=0;entryY=0;entryDx=0;entryDy=31.5;entryPerimeter=0;fillColor=#FFFFFF;strokeColor=#FFFFFF;" edge="1" parent="1" source="ovKxOL7qd5Me1iG77r4D-23" target="ovKxOL7qd5Me1iG77r4D-41">
          <mxGeometry relative="1" as="geometry">
            <Array as="points">
              <mxPoint x="700" y="456" />
              <mxPoint x="700" y="492" />
            </Array>
          </mxGeometry>
        </mxCell>
        <mxCell id="ovKxOL7qd5Me1iG77r4D-96" style="edgeStyle=orthogonalEdgeStyle;rounded=0;orthogonalLoop=1;jettySize=auto;html=1;exitX=0;exitY=0;exitDx=120;exitDy=41;exitPerimeter=0;entryX=0.007;entryY=0.243;entryDx=0;entryDy=0;entryPerimeter=0;fillColor=#FFFFFF;strokeColor=#FFFFFF;" edge="1" parent="1" source="ovKxOL7qd5Me1iG77r4D-28" target="ovKxOL7qd5Me1iG77r4D-47">
          <mxGeometry relative="1" as="geometry" />
        </mxCell>
        <mxCell id="ovKxOL7qd5Me1iG77r4D-97" style="edgeStyle=orthogonalEdgeStyle;rounded=0;orthogonalLoop=1;jettySize=auto;html=1;exitX=0;exitY=0;exitDx=170;exitDy=46;exitPerimeter=0;entryX=0.003;entryY=0.282;entryDx=0;entryDy=0;entryPerimeter=0;fillColor=#FFFFFF;strokeColor=#FFFFFF;" edge="1" parent="1" source="ovKxOL7qd5Me1iG77r4D-30" target="ovKxOL7qd5Me1iG77r4D-49">
          <mxGeometry relative="1" as="geometry" />
        </mxCell>
        <mxCell id="ovKxOL7qd5Me1iG77r4D-99" style="edgeStyle=orthogonalEdgeStyle;rounded=0;orthogonalLoop=1;jettySize=auto;html=1;exitX=0;exitY=0;exitDx=200;exitDy=22;exitPerimeter=0;entryX=0.019;entryY=0.209;entryDx=0;entryDy=0;entryPerimeter=0;fillColor=#FFFFFF;strokeColor=#FFFFFF;" edge="1" parent="1" source="ovKxOL7qd5Me1iG77r4D-33" target="ovKxOL7qd5Me1iG77r4D-55">
          <mxGeometry relative="1" as="geometry" />
        </mxCell>
        <mxCell id="ovKxOL7qd5Me1iG77r4D-11" value="PostgreSQL&lt;div&gt;SUPABASE&lt;/div&gt;" style="shape=cylinder3;whiteSpace=wrap;html=1;boundedLbl=1;backgroundOutline=1;size=15;fillColor=#009900;" vertex="1" parent="1">
          <mxGeometry x="220" y="620" width="126" height="124.5" as="geometry" />
        </mxCell>
        <mxCell id="ovKxOL7qd5Me1iG77r4D-101" style="edgeStyle=orthogonalEdgeStyle;rounded=0;orthogonalLoop=1;jettySize=auto;html=1;exitX=1;exitY=0.5;exitDx=0;exitDy=0;exitPerimeter=0;entryX=0;entryY=0;entryDx=0;entryDy=46;entryPerimeter=0;fillColor=#FFFFFF;" edge="1" parent="1">
          <mxGeometry relative="1" as="geometry">
            <mxPoint x="346" y="681.25" as="sourcePoint" />
            <mxPoint x="470" y="682.7500000000001" as="targetPoint" />
            <Array as="points">
              <mxPoint x="408" y="681" />
              <mxPoint x="408" y="683" />
            </Array>
          </mxGeometry>
        </mxCell>
      </root>
    </mxGraphModel>
  </diagram>
</mxfile>
